<svg width="42" height="40" viewBox="0 0 42 40" fill="none" xmlns="http://www.w3.org/2000/svg">
<path d="M1 20C1 8.95431 9.95431 0 21 0C32.0457 0 41 8.95431 41 20C41 31.0457 32.0457 40 21 40C9.95431 40 1 31.0457 1 20Z" fill="#EEEEEE"/>
<path d="M26.92 19.62C26.8724 19.4973 26.801 19.3851 26.71 19.29L21.71 14.29C21.6168 14.1968 21.5061 14.1228 21.3842 14.0723C21.2624 14.0219 21.1319 13.9959 21 13.9959C20.7337 13.9959 20.4783 14.1017 20.29 14.29C20.1968 14.3832 20.1228 14.4939 20.0723 14.6158C20.0219 14.7376 19.9959 14.8681 19.9959 15C19.9959 15.2663 20.1017 15.5217 20.29 15.71L23.59 19H16C15.7348 19 15.4804 19.1054 15.2929 19.2929C15.1054 19.4804 15 19.7348 15 20C15 20.2652 15.1054 20.5196 15.2929 20.7071C15.4804 20.8946 15.7348 21 16 21H23.59L20.29 24.29C20.1963 24.383 20.1219 24.4936 20.0711 24.6154C20.0203 24.7373 19.9942 24.868 19.9942 25C19.9942 25.132 20.0203 25.2627 20.0711 25.3846C20.1219 25.5064 20.1963 25.617 20.29 25.71C20.383 25.8037 20.4936 25.8781 20.6154 25.9289C20.7373 25.9797 20.868 26.0058 21 26.0058C21.132 26.0058 21.2627 25.9797 21.3846 25.9289C21.5064 25.8781 21.617 25.8037 21.71 25.71L26.71 20.71C26.801 20.6149 26.8724 20.5028 26.92 20.38C27.02 20.1365 27.02 19.8635 26.92 19.62Z" fill="#3E3E3E"/>
</svg>
