<svg width="16" height="12" viewBox="0 0 16 12" fill="none" xmlns="http://www.w3.org/2000/svg">
<path d="M6.17436 4.5C5.97545 4.5 5.78468 4.57902 5.64403 4.71967C5.50338 4.86032 5.42436 5.05109 5.42436 5.25V6.75C5.42436 6.94891 5.50338 7.13968 5.64403 7.28033C5.78468 7.42098 5.97545 7.5 6.17436 7.5C6.37327 7.5 6.56404 7.42098 6.70469 7.28033C6.84534 7.13968 6.92436 6.94891 6.92436 6.75V5.25C6.92436 5.05109 6.84534 4.86032 6.70469 4.71967C6.56404 4.57902 6.37327 4.5 6.17436 4.5ZM15.1744 5.25C15.3733 5.25 15.564 5.17098 15.7047 5.03033C15.8453 4.88968 15.9244 4.69891 15.9244 4.5V1.5C15.9244 1.30109 15.8453 1.11032 15.7047 0.96967C15.564 0.829018 15.3733 0.75 15.1744 0.75H1.67436C1.47545 0.75 1.28468 0.829018 1.14403 0.96967C1.00338 1.11032 0.924362 1.30109 0.924362 1.5V4.5C0.924362 4.69891 1.00338 4.88968 1.14403 5.03033C1.28468 5.17098 1.47545 5.25 1.67436 5.25C1.87327 5.25 2.06404 5.32902 2.20469 5.46967C2.34534 5.61032 2.42436 5.80109 2.42436 6C2.42436 6.19891 2.34534 6.38968 2.20469 6.53033C2.06404 6.67098 1.87327 6.75 1.67436 6.75C1.47545 6.75 1.28468 6.82902 1.14403 6.96967C1.00338 7.11032 0.924362 7.30109 0.924362 7.5V10.5C0.924362 10.6989 1.00338 10.8897 1.14403 11.0303C1.28468 11.171 1.47545 11.25 1.67436 11.25H15.1744C15.3733 11.25 15.564 11.171 15.7047 11.0303C15.8453 10.8897 15.9244 10.6989 15.9244 10.5V7.5C15.9244 7.30109 15.8453 7.11032 15.7047 6.96967C15.564 6.82902 15.3733 6.75 15.1744 6.75C14.9754 6.75 14.7847 6.67098 14.644 6.53033C14.5034 6.38968 14.4244 6.19891 14.4244 6C14.4244 5.80109 14.5034 5.61032 14.644 5.46967C14.7847 5.32902 14.9754 5.25 15.1744 5.25ZM14.4244 3.885C13.99 4.04265 13.6147 4.33022 13.3495 4.70862C13.0843 5.08703 12.942 5.53791 12.942 6C12.942 6.46209 13.0843 6.91297 13.3495 7.29138C13.6147 7.66978 13.99 7.95735 14.4244 8.115V9.75H6.92436C6.92436 9.55109 6.84534 9.36032 6.70469 9.21967C6.56404 9.07902 6.37327 9 6.17436 9C5.97545 9 5.78468 9.07902 5.64403 9.21967C5.50338 9.36032 5.42436 9.55109 5.42436 9.75H2.42436V8.115C2.85873 7.95735 3.23402 7.66978 3.49923 7.29138C3.76445 6.91297 3.90672 6.46209 3.90672 6C3.90672 5.53791 3.76445 5.08703 3.49923 4.70862C3.23402 4.33022 2.85873 4.04265 2.42436 3.885V2.25H5.42436C5.42436 2.44891 5.50338 2.63968 5.64403 2.78033C5.78468 2.92098 5.97545 3 6.17436 3C6.37327 3 6.56404 2.92098 6.70469 2.78033C6.84534 2.63968 6.92436 2.44891 6.92436 2.25H14.4244V3.885Z" fill="#3E3E3E"/>
</svg>
