<svg width="32" height="32" viewBox="0 0 32 32" fill="none" xmlns="http://www.w3.org/2000/svg">
<path d="M0 16C0 7.16344 7.16344 0 16 0C24.8366 0 32 7.16344 32 16C32 24.8366 24.8366 32 16 32C7.16344 32 0 24.8366 0 16Z" fill="#EEEEEE"/>
<path d="M9 22H13.24C13.3716 22.0008 13.5021 21.9755 13.6239 21.9258C13.7457 21.876 13.8566 21.8027 13.95 21.71L20.87 14.78L23.71 12C23.8037 11.907 23.8781 11.7964 23.9289 11.6746C23.9797 11.5527 24.0058 11.422 24.0058 11.29C24.0058 11.158 23.9797 11.0273 23.9289 10.9054C23.8781 10.7836 23.8037 10.673 23.71 10.58L19.47 6.29C19.377 6.19627 19.2664 6.12188 19.1446 6.07111C19.0227 6.02034 18.892 5.9942 18.76 5.9942C18.628 5.9942 18.4973 6.02034 18.3754 6.07111C18.2536 6.12188 18.143 6.19627 18.05 6.29L15.23 9.12L8.29 16.05C8.19732 16.1434 8.12399 16.2543 8.07423 16.3761C8.02446 16.4979 7.99924 16.6284 8 16.76V21C8 21.2652 8.10536 21.5196 8.29289 21.7071C8.48043 21.8946 8.73478 22 9 22ZM18.76 8.41L21.59 11.24L20.17 12.66L17.34 9.83L18.76 8.41ZM10 17.17L15.93 11.24L18.76 14.07L12.83 20H10V17.17ZM25 24H7C6.73478 24 6.48043 24.1054 6.29289 24.2929C6.10536 24.4804 6 24.7348 6 25C6 25.2652 6.10536 25.5196 6.29289 25.7071C6.48043 25.8946 6.73478 26 7 26H25C25.2652 26 25.5196 25.8946 25.7071 25.7071C25.8946 25.5196 26 25.2652 26 25C26 24.7348 25.8946 24.4804 25.7071 24.2929C25.5196 24.1054 25.2652 24 25 24Z" fill="#535353"/>
</svg>
