<svg width="12" height="14" viewBox="0 0 12 14" fill="none" xmlns="http://www.w3.org/2000/svg">
<path d="M5.99999 6.5222C6.2637 6.5222 6.52148 6.44401 6.74075 6.2975C6.96002 6.15099 7.13091 5.94275 7.23183 5.69912C7.33275 5.45548 7.35915 5.18739 7.3077 4.92875C7.25626 4.67011 7.12927 4.43253 6.9428 4.24606C6.75633 4.05959 6.51875 3.9326 6.26011 3.88116C6.00147 3.82971 5.73338 3.85611 5.48975 3.95703C5.24611 4.05795 5.03787 4.22885 4.89136 4.44811C4.74485 4.66738 4.66666 4.92516 4.66666 5.18887C4.66666 5.54249 4.80713 5.88163 5.05718 6.13168C5.30723 6.38173 5.64637 6.5222 5.99999 6.5222ZM5.52666 11.1289C5.58863 11.1914 5.66237 11.241 5.74361 11.2748C5.82484 11.3086 5.91198 11.3261 5.99999 11.3261C6.088 11.3261 6.17513 11.3086 6.25637 11.2748C6.33761 11.241 6.41135 11.1914 6.47332 11.1289L9.19999 8.39554C9.83329 7.76257 10.2647 6.956 10.4395 6.07784C10.6144 5.19969 10.5249 4.28941 10.1823 3.46213C9.83977 2.63485 9.25957 1.92774 8.51512 1.43024C7.77066 0.932742 6.89538 0.667198 5.99999 0.667198C5.1046 0.667198 4.22932 0.932742 3.48486 1.43024C2.7404 1.92774 2.16021 2.63485 1.81767 3.46213C1.47513 4.28941 1.38562 5.19969 1.56047 6.07784C1.73533 6.956 2.16669 7.76257 2.79999 8.39554L5.52666 11.1289ZM2.81999 4.8822C2.86554 4.40688 3.01667 3.94773 3.26234 3.53828C3.50801 3.12883 3.84202 2.77941 4.23999 2.51554C4.76279 2.17227 5.37457 1.98938 5.99999 1.98938C6.62541 1.98938 7.23719 2.17227 7.75999 2.51554C8.1553 2.7785 8.48742 3.1258 8.73247 3.53246C8.97753 3.93912 9.12942 4.39502 9.17723 4.8674C9.22505 5.33977 9.16758 5.81686 9.00898 6.26438C8.85038 6.71189 8.59459 7.11869 8.25999 7.45554L5.99999 9.71554L3.73999 7.45554C3.405 7.12196 3.14861 6.71789 2.98946 6.27274C2.83031 5.82759 2.77242 5.35255 2.81999 4.8822ZM10.6667 12.6555H1.33332C1.15651 12.6555 0.986943 12.7258 0.861919 12.8508C0.736895 12.9758 0.666656 13.1454 0.666656 13.3222C0.666656 13.499 0.736895 13.6686 0.861919 13.7936C0.986943 13.9186 1.15651 13.9889 1.33332 13.9889H10.6667C10.8435 13.9889 11.013 13.9186 11.1381 13.7936C11.2631 13.6686 11.3333 13.499 11.3333 13.3222C11.3333 13.1454 11.2631 12.9758 11.1381 12.8508C11.013 12.7258 10.8435 12.6555 10.6667 12.6555Z" fill="#3E3E3E"/>
</svg>
