<svg width="23" height="24" viewBox="0 0 23 24" fill="none" xmlns="http://www.w3.org/2000/svg">
<path d="M11.7468 24C10.7816 24.0003 9.83324 23.7456 8.99593 23.2613L3.46286 20.0482C2.62362 19.56 1.92689 18.8571 1.44299 18.0104C0.959093 17.1637 0.705152 16.2033 0.706795 15.2259V8.77857C0.706213 7.80081 0.96117 6.84019 1.44596 5.99355C1.93075 5.14692 2.62824 4.4442 3.4681 3.95625L8.9907 0.737853C9.82923 0.254334 10.7783 0 11.7442 0C12.71 0 13.6591 0.254334 14.4976 0.737853L20.0307 3.95625C20.871 4.44321 21.5686 5.14586 22.0527 5.99282C22.5367 6.83979 22.79 7.8009 22.7868 8.77857V15.2206C22.7877 16.1992 22.533 17.1607 22.0482 18.0082C21.5634 18.8558 20.8657 19.5594 20.0255 20.0482L14.5028 23.2666C13.6629 23.7483 12.713 24.0011 11.7468 24ZM11.7468 3.24926C11.3449 3.24741 10.9497 3.353 10.6015 3.55527L5.07362 6.77366C4.7255 6.97705 4.43675 7.26954 4.23657 7.62157C4.03638 7.97361 3.93186 8.37272 3.93354 8.77857V15.2206C3.93306 15.6282 4.03918 16.0287 4.2412 16.3816C4.44321 16.7346 4.73396 17.0275 5.08409 17.2308L10.6015 20.4439C10.9513 20.6447 11.3469 20.7502 11.7494 20.7502C12.1519 20.7502 12.5475 20.6447 12.8973 20.4439L18.4199 17.2308C18.7683 17.0273 19.0575 16.7349 19.2585 16.383C19.4596 16.0311 19.5653 15.6321 19.5652 15.2259V8.77857C19.5652 8.37048 19.4583 7.96966 19.2553 7.61666C19.0524 7.26367 18.7606 6.97103 18.4095 6.76839L12.8921 3.55527C12.5438 3.353 12.1486 3.24741 11.7468 3.24926Z" fill="#DF3856"/>
</svg>
