<svg width="12" height="13" viewBox="0 0 12 13" fill="none" xmlns="http://www.w3.org/2000/svg">
<path d="M11.25 5.84418H6.75V1.34418C6.75 1.14526 6.67098 0.9545 6.53033 0.813847C6.38968 0.673195 6.19891 0.594177 6 0.594177C5.80109 0.594177 5.61032 0.673195 5.46967 0.813847C5.32902 0.9545 5.25 1.14526 5.25 1.34418V5.84418H0.75C0.551088 5.84418 0.360322 5.92319 0.21967 6.06385C0.0790178 6.2045 0 6.39527 0 6.59418C0 6.79309 0.0790178 6.98385 0.21967 7.12451C0.360322 7.26516 0.551088 7.34418 0.75 7.34418H5.25V11.8442C5.25 12.0431 5.32902 12.2339 5.46967 12.3745C5.61032 12.5152 5.80109 12.5942 6 12.5942C6.19891 12.5942 6.38968 12.5152 6.53033 12.3745C6.67098 12.2339 6.75 12.0431 6.75 11.8442V7.34418H11.25C11.4489 7.34418 11.6397 7.26516 11.7803 7.12451C11.921 6.98385 12 6.79309 12 6.59418C12 6.39527 11.921 6.2045 11.7803 6.06385C11.6397 5.92319 11.4489 5.84418 11.25 5.84418Z" fill="#3E3E3E"/>
</svg>
