<svg width="131" height="40" viewBox="0 0 131 40" fill="none" xmlns="http://www.w3.org/2000/svg">
<path d="M0 20C0 8.95431 8.9543 0 20 0H111C122.046 0 131 8.95431 131 20C131 31.0457 122.046 40 111 40H20C8.9543 40 0 31.0457 0 20Z" fill="white"/>
<path d="M24.0346 24.3652C23.503 24.3652 22.9816 24.2638 22.4703 24.0609C21.963 23.858 21.4923 23.5313 21.0581 23.0809L22.1598 21.5287C22.3587 21.7113 22.5514 21.8614 22.7381 21.9791C22.9248 22.0928 23.1033 22.182 23.2737 22.247C23.4442 22.3119 23.6045 22.3565 23.7546 22.3809C23.9088 22.4052 24.0529 22.4174 24.1868 22.4174C24.2964 22.4174 24.414 22.4113 24.5398 22.3991C24.6656 22.3829 24.7894 22.3586 24.9111 22.3261C25.0369 22.2936 25.1546 22.253 25.2642 22.2043C25.3737 22.1557 25.4691 22.0948 25.5503 22.0217C25.3961 21.6484 25.2277 21.2609 25.045 20.8591C24.8665 20.4533 24.6859 20.0475 24.5033 19.6417C24.3207 19.2319 24.1401 18.8261 23.9616 18.4243C23.783 18.0226 23.6166 17.6371 23.4624 17.2678L25.2398 16.5252L27.2485 21.3765C27.3216 21.5551 27.3885 21.7113 27.4494 21.8452C27.5103 21.9791 27.5813 22.0907 27.6624 22.18C27.7477 22.2693 27.8471 22.3362 27.9607 22.3809C28.0784 22.4214 28.2285 22.4417 28.4111 22.4417H28.5877V24.3652H28.4111C28.1636 24.3652 27.9445 24.349 27.7537 24.3165C27.5671 24.2841 27.3987 24.2374 27.2485 24.1765C27.1024 24.1197 26.9706 24.0507 26.8529 23.9696C26.7393 23.8843 26.6317 23.791 26.5303 23.6896C26.3436 23.8154 26.1569 23.9209 25.9703 24.0061C25.7836 24.0954 25.5888 24.1664 25.3859 24.2191C25.183 24.2719 24.97 24.3084 24.7468 24.3287C24.5277 24.353 24.2903 24.3652 24.0346 24.3652ZM28.346 22.4417H29.8069C29.9814 22.4417 30.1742 22.4336 30.3852 22.4174C30.5962 22.3971 30.793 22.3586 30.9756 22.3017C31.1623 22.2449 31.3165 22.1617 31.4382 22.0522C31.564 21.9386 31.6269 21.7904 31.6269 21.6078C31.6269 21.5104 31.5965 21.3664 31.5356 21.1757C31.4788 20.9809 31.4017 20.7658 31.3043 20.5304C31.211 20.291 31.1034 20.0414 30.9817 19.7817C30.864 19.522 30.7463 19.2745 30.6286 19.0391L32.3695 18.1748C32.4831 18.4304 32.5947 18.7023 32.7043 18.9904C32.8179 19.2786 32.9194 19.5707 33.0086 19.867C33.0979 20.1632 33.1689 20.4594 33.2217 20.7557C33.2785 21.0478 33.3069 21.3278 33.3069 21.5957C33.3069 22.0988 33.2136 22.527 33.0269 22.88C32.8443 23.229 32.5947 23.5151 32.2782 23.7383C31.9617 23.9574 31.5904 24.1157 31.1643 24.213C30.7382 24.3145 30.2817 24.3652 29.7947 24.3652H28.346V22.4417ZM30.7199 26.1487L29.5756 27.293L28.3947 26.1183L29.5634 24.9435L30.7199 26.1L31.8643 24.9557L33.0452 26.1304L31.8765 27.3052L30.7199 26.1487ZM36.8178 24.3652C36.2862 24.3652 35.7648 24.2638 35.2535 24.0609C34.7462 23.858 34.2755 23.5313 33.8413 23.0809L34.943 21.5287C35.1419 21.7113 35.3346 21.8614 35.5213 21.9791C35.708 22.0928 35.8865 22.182 36.0569 22.247C36.2274 22.3119 36.3877 22.3565 36.5378 22.3809C36.692 22.4052 36.8361 22.4174 36.97 22.4174C37.0796 22.4174 37.1972 22.4113 37.323 22.3991C37.4488 22.3829 37.5726 22.3586 37.6943 22.3261C37.8201 22.2936 37.9378 22.253 38.0474 22.2043C38.1569 22.1557 38.2523 22.0948 38.3335 22.0217C38.1793 21.6484 38.0109 21.2609 37.8283 20.8591C37.6497 20.4533 37.4691 20.0475 37.2865 19.6417C37.1039 19.2319 36.9233 18.8261 36.7448 18.4243C36.5662 18.0226 36.3998 17.6371 36.2456 17.2678L38.023 16.5252L40.0317 21.3765C40.1048 21.5551 40.1717 21.7113 40.2326 21.8452C40.2935 21.9791 40.3645 22.0907 40.4456 22.18C40.5309 22.2693 40.6303 22.3362 40.7439 22.3809C40.8616 22.4214 41.0117 22.4417 41.1943 22.4417H41.3709V24.3652H41.1943C40.9468 24.3652 40.7277 24.349 40.5369 24.3165C40.3503 24.2841 40.1819 24.2374 40.0317 24.1765C39.8856 24.1197 39.7538 24.0507 39.6361 23.9696C39.5225 23.8843 39.4149 23.791 39.3135 23.6896C39.1268 23.8154 38.9401 23.9209 38.7535 24.0061C38.5668 24.0954 38.372 24.1664 38.1691 24.2191C37.9662 24.2719 37.7532 24.3084 37.53 24.3287C37.3109 24.353 37.0735 24.3652 36.8178 24.3652ZM41.1292 22.4417H42.4136C43.071 22.4417 43.6736 22.4032 44.2214 22.3261C44.7733 22.2449 45.2887 22.1374 45.7675 22.0035C46.2463 21.8696 46.6988 21.7154 47.1249 21.5409C47.555 21.3623 47.9771 21.1777 48.391 20.987C48.115 20.9099 47.8371 20.8145 47.5571 20.7009C47.2811 20.5872 47.0032 20.4777 46.7232 20.3722C46.4472 20.2667 46.1713 20.1774 45.8953 20.1043C45.6194 20.0272 45.3455 19.9887 45.0736 19.9887C44.8869 19.9887 44.7023 20.0394 44.5197 20.1409C44.3411 20.2423 44.1788 20.358 44.0327 20.4878C43.8866 20.6177 43.7649 20.7455 43.6675 20.8713C43.5701 20.993 43.5092 21.0762 43.4849 21.1209L42.0788 20.2139C42.233 19.942 42.4156 19.6762 42.6266 19.4165C42.8376 19.1568 43.0689 18.9275 43.3205 18.7287C43.5762 18.5258 43.8501 18.3635 44.1423 18.2417C44.4385 18.12 44.7489 18.0591 45.0736 18.0591C45.313 18.0591 45.5524 18.0855 45.7918 18.1383C46.0313 18.187 46.2687 18.2519 46.504 18.333C46.7434 18.4142 46.9788 18.5075 47.2101 18.613C47.4414 18.7145 47.6707 18.818 47.8979 18.9235C48.113 19.0249 48.3301 19.1264 48.5492 19.2278C48.7684 19.3252 48.9936 19.4165 49.2249 19.5017C49.4562 19.5829 49.6956 19.6499 49.9432 19.7026C50.1907 19.7554 50.4524 19.7838 50.7284 19.7878L50.5762 21.6565L49.7118 22.0704C49.3588 22.2409 49.0078 22.4174 48.6588 22.6C48.3098 22.7786 47.9547 22.953 47.5936 23.1235C47.2324 23.2899 46.8591 23.4501 46.4736 23.6043C46.0881 23.7545 45.6843 23.8864 45.2623 24C44.8403 24.1096 44.3939 24.1968 43.9232 24.2617C43.4524 24.3307 42.9492 24.3652 42.4136 24.3652H41.1292V22.4417ZM46.151 27.6887L44.7997 26.3374L46.151 24.9861L47.5023 26.3374L46.151 27.6887ZM70.2996 17.9435C70.324 17.9922 70.3666 18.0814 70.4274 18.2113C70.4924 18.3371 70.5654 18.4913 70.6466 18.6739C70.7277 18.8525 70.813 19.0533 70.9022 19.2765C70.9915 19.4997 71.0727 19.7351 71.1457 19.9826C71.2188 20.2261 71.2776 20.4757 71.3222 20.7313C71.3709 20.987 71.3953 21.2345 71.3953 21.4739C71.3912 21.8757 71.3303 22.251 71.2127 22.6C71.099 22.949 70.9306 23.2533 70.7074 23.513C70.4843 23.7687 70.2083 23.9716 69.8796 24.1217C69.5509 24.2719 69.1715 24.347 68.7414 24.347C68.368 24.347 68.0617 24.2841 67.8222 24.1583C67.5869 24.0325 67.3921 23.86 67.2379 23.6409C67.1527 23.7504 67.0614 23.8499 66.964 23.9391C66.8666 24.0243 66.7509 24.0974 66.617 24.1583C66.4872 24.2232 66.333 24.2719 66.1544 24.3043C65.9799 24.3368 65.7709 24.353 65.5274 24.353C65.357 24.353 65.2008 24.3409 65.0588 24.3165C64.9167 24.2922 64.7869 24.2617 64.6692 24.2252C64.6651 24.7 64.5921 25.1322 64.4501 25.5217C64.3121 25.9113 64.1214 26.2603 63.8779 26.5687C63.6385 26.8771 63.3564 27.1449 63.0318 27.3722C62.7072 27.5994 62.3582 27.7861 61.9848 27.9322C61.6115 28.0823 61.2199 28.1939 60.8101 28.267C60.4043 28.34 60.0005 28.3765 59.5988 28.3765C58.9779 28.3765 58.4037 28.273 57.8761 28.0661C57.3486 27.8632 56.8921 27.5751 56.5066 27.2017C56.1251 26.8325 55.8269 26.3861 55.6118 25.8626C55.3967 25.3432 55.2892 24.769 55.2892 24.14C55.3014 23.7748 55.3501 23.4014 55.4353 23.02C55.5245 22.6386 55.6361 22.2652 55.7701 21.9C55.908 21.5348 56.0602 21.1878 56.2266 20.8591C56.397 20.5264 56.5695 20.2281 56.744 19.9643L58.0709 20.987C57.9248 21.2264 57.7828 21.48 57.6448 21.7478C57.5069 22.0157 57.3851 22.2875 57.2796 22.5635C57.1741 22.8394 57.0889 23.1154 57.024 23.3913C56.959 23.6672 56.9266 23.933 56.9266 24.1887C56.9144 24.4971 56.9753 24.7872 57.1092 25.0591C57.2472 25.331 57.4359 25.5684 57.6753 25.7713C57.9188 25.9783 58.2028 26.1406 58.5274 26.2583C58.8561 26.3759 59.2051 26.4348 59.5744 26.4348C59.9924 26.4348 60.3779 26.3962 60.7309 26.3191C61.088 26.242 61.4025 26.1345 61.6744 25.9965C61.9503 25.8626 62.1817 25.6983 62.3683 25.5035C62.555 25.3128 62.6889 25.1017 62.7701 24.8704L62.764 24.8765C62.8654 24.5559 62.9161 24.213 62.9161 23.8478C62.9161 23.5759 62.8776 23.3 62.8005 23.02C62.7234 22.74 62.624 22.458 62.5022 22.1739C62.3805 21.8858 62.2445 21.5977 62.0944 21.3096C61.9483 21.0174 61.8043 20.7252 61.6622 20.433L63.3301 19.4957C63.4356 19.7351 63.5411 19.9765 63.6466 20.22C63.7521 20.4635 63.8576 20.6968 63.9631 20.92C64.0727 21.1391 64.1843 21.3441 64.2979 21.5348C64.4115 21.7255 64.5292 21.8899 64.6509 22.0278C64.7727 22.1617 64.8985 22.2632 65.0283 22.3322C65.1622 22.4012 65.3043 22.4255 65.4544 22.4052C65.6248 22.3809 65.7628 22.322 65.8683 22.2287C65.9738 22.1313 66.053 22.0116 66.1057 21.8696C66.1625 21.7275 66.197 21.5693 66.2092 21.3948C66.2254 21.2162 66.2295 21.0357 66.2214 20.853C66.2132 20.6704 66.199 20.4899 66.1788 20.3113C66.1625 20.1328 66.1483 19.9684 66.1361 19.8183L67.8161 19.593C67.8445 19.7188 67.8689 19.871 67.8892 20.0496C67.9095 20.2241 67.9318 20.4087 67.9561 20.6035C67.9845 20.7983 68.019 20.9951 68.0596 21.1939C68.1002 21.3928 68.155 21.5774 68.224 21.7478C68.293 21.9183 68.3782 22.0664 68.4796 22.1922C68.5811 22.318 68.7089 22.4072 68.8631 22.46C68.9889 22.46 69.1066 22.4377 69.2161 22.393C69.3257 22.3443 69.4211 22.2754 69.5022 22.1861C69.5834 22.0968 69.6463 21.9872 69.6909 21.8574C69.7396 21.7235 69.764 21.5693 69.764 21.3948C69.764 21.2487 69.7356 21.0803 69.6788 20.8896C69.626 20.6948 69.553 20.4858 69.4596 20.2626C69.3663 20.0394 69.2567 19.8061 69.1309 19.5626C69.0092 19.3151 68.8793 19.0655 68.7414 18.8139L70.2996 17.9435ZM74.987 19.9035C75.0722 20.1551 75.1615 20.431 75.2548 20.7313C75.3522 21.0275 75.4394 21.3319 75.5165 21.6443C75.5977 21.9568 75.6647 22.2693 75.7174 22.5817C75.7702 22.8901 75.7965 23.1803 75.7965 23.4522C75.7965 23.8336 75.7438 24.2049 75.6383 24.5661C75.5368 24.9313 75.3908 25.2843 75.2 25.6252C75.0134 25.9661 74.7902 26.2928 74.5305 26.6052C74.2708 26.9177 73.9826 27.2119 73.6661 27.4878C73.3496 27.7678 73.0108 28.0255 72.6496 28.2609C72.2884 28.5003 71.9151 28.7154 71.5296 28.9061L70.4218 27.3661C70.7139 27.22 71.0102 27.0536 71.3105 26.867C71.6067 26.6843 71.8908 26.4875 72.1626 26.2765C72.4386 26.0655 72.6942 25.8443 72.9296 25.613C73.169 25.3817 73.376 25.1464 73.5505 24.907C73.729 24.6675 73.869 24.4241 73.9705 24.1765C74.0719 23.933 74.1226 23.6936 74.1226 23.4583C74.1226 23.2878 74.0983 23.1032 74.0496 22.9043C74.005 22.7055 73.9421 22.4925 73.8609 22.2652C73.7797 22.0339 73.6844 21.7904 73.5748 21.5348C73.4693 21.2751 73.3536 20.9991 73.2279 20.707L74.987 19.9035ZM77.0016 21.5226C77.172 21.6322 77.3708 21.7417 77.5981 21.8513C77.8294 21.9609 78.0647 22.0623 78.3042 22.1557C78.5476 22.2449 78.783 22.318 79.0102 22.3748C79.2375 22.4316 79.4343 22.46 79.6007 22.46C79.694 22.46 79.8218 22.4519 79.9842 22.4357C80.1505 22.4194 80.3129 22.389 80.4711 22.3443C80.6334 22.2957 80.7734 22.2287 80.8911 22.1435C81.0129 22.0583 81.0778 21.9467 81.0859 21.8087C81.09 21.6504 81.0413 21.4719 80.9398 21.273C80.8424 21.0742 80.7085 20.8672 80.5381 20.6522C80.3717 20.433 80.1769 20.2139 79.9537 19.9948C79.7346 19.7716 79.5073 19.5586 79.272 19.3557C79.0366 19.1487 78.8013 18.958 78.5659 18.7835C78.3305 18.6049 78.1134 18.4528 77.9146 18.327L78.992 16.7261C79.3856 17.002 79.7752 17.3125 80.1607 17.6574C80.5502 17.9983 80.9073 18.3594 81.232 18.7409C81.5607 19.1223 81.8447 19.518 82.0842 19.9278C82.3276 20.3336 82.5021 20.7435 82.6076 21.1574C82.6401 21.2751 82.6624 21.3948 82.6746 21.5165C82.6868 21.6342 82.6929 21.7478 82.6929 21.8574C82.6929 22.2348 82.6198 22.5817 82.4737 22.8983C82.3276 23.2107 82.1227 23.4826 81.8589 23.7139C81.5992 23.9412 81.2868 24.1177 80.9216 24.2435C80.5563 24.3693 80.1546 24.4322 79.7163 24.4322C79.6839 24.4322 79.6514 24.4301 79.6189 24.4261C79.5865 24.4261 79.554 24.4261 79.5216 24.4261C79.2416 24.4261 78.9534 24.3957 78.6572 24.3348C78.365 24.278 78.0749 24.2009 77.7868 24.1035C77.5027 24.0061 77.2247 23.8925 76.9529 23.7626C76.685 23.6328 76.4355 23.4968 76.2042 23.3548L77.0016 21.5226ZM84.23 24.3835C84.2503 24.0507 84.2706 23.7058 84.2909 23.3487C84.3112 22.9916 84.3274 22.6386 84.3396 22.2896C84.3558 21.9406 84.366 21.6017 84.37 21.273C84.3741 20.9443 84.37 20.642 84.3579 20.3661C84.3335 19.7574 84.3092 19.2258 84.2848 18.7713C84.2605 18.3128 84.2361 17.911 84.2118 17.5661C84.1915 17.2171 84.1692 16.9148 84.1448 16.6591C84.1205 16.3994 84.0941 16.162 84.0657 15.947L85.9405 15.3504C85.9973 15.813 86.0419 16.2716 86.0744 16.7261C86.1109 17.1765 86.1393 17.6067 86.1596 18.0165C86.1799 18.4223 86.1921 18.8017 86.1961 19.1548C86.2043 19.5038 86.2083 19.8081 86.2083 20.0678C86.2083 20.3478 86.2063 20.6501 86.2022 20.9748C86.2022 21.2994 86.1982 21.6362 86.19 21.9852C86.186 22.3342 86.1779 22.6872 86.1657 23.0443C86.1535 23.4014 86.1353 23.7504 86.1109 24.0913L84.23 24.3835ZM82.6231 14.693C82.6596 14.4901 82.7306 14.2954 82.8361 14.1087C82.9416 13.922 83.0674 13.7577 83.2135 13.6157C83.3596 13.4736 83.5199 13.362 83.6944 13.2809C83.8729 13.1957 84.0556 13.153 84.2422 13.153C84.4329 13.153 84.6014 13.1754 84.7474 13.22C84.8976 13.2646 85.0376 13.3154 85.1674 13.3722C85.3419 13.4452 85.4941 13.4939 85.624 13.5183C85.7579 13.5386 85.8796 13.5304 85.9892 13.4939C86.1028 13.4574 86.2103 13.3925 86.3118 13.2991C86.4173 13.2058 86.5289 13.082 86.6466 12.9278L87.4805 13.4635C87.4764 13.4757 87.4541 13.5101 87.4135 13.567C87.3729 13.6238 87.3161 13.6928 87.2431 13.7739C87.1741 13.8551 87.0889 13.9423 86.9874 14.0357C86.886 14.1249 86.7724 14.2101 86.6466 14.2913C86.5208 14.3684 86.3848 14.4333 86.2387 14.4861C86.0927 14.5388 85.9385 14.5672 85.7761 14.5713C85.6138 14.5754 85.4657 14.5571 85.3318 14.5165C85.1979 14.4759 85.068 14.4313 84.9422 14.3826C84.8164 14.3339 84.6866 14.2913 84.5527 14.2548C84.4228 14.2142 84.2808 14.1959 84.1266 14.2C84.0211 14.2041 83.9358 14.2386 83.8709 14.3035C83.806 14.3643 83.7553 14.4374 83.7187 14.5226C83.6822 14.6078 83.6538 14.6951 83.6335 14.7843C83.6173 14.8736 83.6011 14.9426 83.5848 14.9913L82.6231 14.693Z" fill="#3E3E3E"/>
<path d="M106.5 19H100.5V13C100.5 12.7348 100.395 12.4804 100.207 12.2929C100.02 12.1054 99.7652 12 99.5 12C99.2348 12 98.9804 12.1054 98.7929 12.2929C98.6054 12.4804 98.5 12.7348 98.5 13V19H92.5C92.2348 19 91.9804 19.1054 91.7929 19.2929C91.6054 19.4804 91.5 19.7348 91.5 20C91.5 20.2652 91.6054 20.5196 91.7929 20.7071C91.9804 20.8946 92.2348 21 92.5 21H98.5V27C98.5 27.2652 98.6054 27.5196 98.7929 27.7071C98.9804 27.8946 99.2348 28 99.5 28C99.7652 28 100.02 27.8946 100.207 27.7071C100.395 27.5196 100.5 27.2652 100.5 27V21H106.5C106.765 21 107.02 20.8946 107.207 20.7071C107.395 20.5196 107.5 20.2652 107.5 20C107.5 19.7348 107.395 19.4804 107.207 19.2929C107.02 19.1054 106.765 19 106.5 19Z" fill="#3E3E3E"/>
<path d="M20 1H111V-1H20V1ZM111 39H20V41H111V39ZM20 39C9.50659 39 1 30.4934 1 20H-1C-1 31.598 8.40202 41 20 41V39ZM130 20C130 30.4934 121.493 39 111 39V41C122.598 41 132 31.598 132 20H130ZM111 1C121.493 1 130 9.50659 130 20H132C132 8.40202 122.598 -1 111 -1V1ZM20 -1C8.40202 -1 -1 8.40202 -1 20H1C1 9.50659 9.50659 1 20 1V-1Z" fill="#9D9D9D"/>
</svg>
