<svg width="70" height="22" viewBox="0 0 70 22" fill="none" xmlns="http://www.w3.org/2000/svg">
<path d="M54.9299 10.7743V13.7481C54.5124 13.9353 54.0545 14.0215 53.5953 13.9993C52.5403 13.9993 52.0128 13.3533 52.0128 11.8664V10.7589C52.0109 10.6852 51.9902 10.6131 51.9526 10.5491C51.9151 10.4851 51.8618 10.4311 51.7975 10.392C51.7332 10.3529 51.66 10.3299 51.5843 10.325C51.5087 10.3202 51.4329 10.3336 51.3639 10.3641L49.5335 11.1998V11.8664C49.5589 12.3825 49.5146 12.8996 49.4016 13.4045C48.6618 13.8326 47.8086 14.0395 46.9486 13.9993C45.2712 13.9993 44.4904 13.02 44.4904 10.8255V9.19508C44.4933 9.12163 44.476 9.04877 44.4404 8.98392C44.4048 8.91908 44.3521 8.86459 44.2877 8.82601C44.2234 8.78743 44.1496 8.76614 44.074 8.76433C43.9984 8.76251 43.9237 8.78023 43.8574 8.81567L42.1852 9.63603C40.7398 12.7688 36.5092 14.0147 30.7224 14.0147C25.1466 14.0147 22.6145 12.1638 22.6145 6.83656V1.37092C22.6144 1.29605 22.5946 1.22244 22.5571 1.15704C22.5196 1.09164 22.4656 1.03659 22.4002 0.997093C22.3347 0.957595 22.26 0.934944 22.1831 0.931276C22.1061 0.927608 22.0295 0.943043 21.9604 0.976127L20.1088 1.84776V8.95923C20.1088 12.656 18.1887 13.9378 13.1984 14.0147C13.1337 14.0169 13.0702 14.0323 13.0121 14.0601C12.9539 14.0878 12.9025 14.1272 12.8612 14.1756C12.8198 14.224 12.7895 14.2804 12.7721 14.341C12.7548 14.4017 12.7509 14.4652 12.7606 14.5274L13.1878 16.6193C17.5768 16.6193 20.1141 15.5016 21.2377 12.4663C22.2452 14.9786 24.9303 16.6193 30.1263 16.6193C35.6388 16.6193 40.3706 15.2452 42.2591 12.5637C42.4384 14.9478 43.6781 16.6193 46.342 16.6193C48.0986 16.6193 49.4649 16.1066 50.2931 14.9632C50.6676 15.9887 51.6593 16.6193 53.1838 16.6193C55.8531 16.6193 57.4039 14.712 57.4039 12.133V9.98468C57.4039 8.0876 57.2615 6.68274 56.9503 5.97005C56.9116 5.89561 56.8564 5.83044 56.7887 5.77923C56.7209 5.72802 56.6424 5.69205 56.5586 5.6739C56.4749 5.65576 56.388 5.65589 56.3043 5.6743C56.2206 5.69271 56.1422 5.72892 56.0746 5.78035L54.2705 6.84168C54.6767 7.60051 54.9194 8.95923 54.9194 10.7743H54.9299ZM10.9723 9.51297V9.16432C10.9723 5.21635 10.065 3.22186 6.98958 3.22186C3.91418 3.22186 2.01514 5.61115 2.01514 9.32327V10.2051C2.01106 10.2809 2.0279 10.3564 2.06393 10.4237C2.09996 10.4911 2.15386 10.5478 2.22005 10.5881C2.28624 10.6284 2.3623 10.6507 2.44035 10.6528C2.51841 10.6549 2.59562 10.6366 2.66398 10.5999L4.50499 9.71806V8.40549C4.50499 6.93397 4.55247 6.3546 4.76348 5.87776C5.27041 5.60612 5.84103 5.46658 6.41987 5.47271C7.96548 5.47271 8.52991 6.49816 8.52991 9.75395V11.4459C6.9854 11.3802 5.43807 11.4748 3.91418 11.7279C1.18694 12.2766 3.86144e-05 14.7274 3.86144e-05 17.9011V20.6186C-0.000954718 20.6917 0.0172314 20.7639 0.0528825 20.8283C0.0885335 20.8927 0.140475 20.9472 0.203809 20.9867C0.267144 21.0262 0.339785 21.0494 0.414884 21.0541C0.489983 21.0587 0.565066 21.0447 0.633054 21.0134L2.4688 20.1315V17.3474C2.44172 16.3433 2.51237 15.3391 2.6798 14.348C3.20731 14.1582 5.23296 14.0454 7.42741 13.9993C9.33173 13.9685 10.9881 12.1996 10.9881 9.51297H10.9723ZM16.3054 11.7228V1.37092C16.3059 1.29785 16.2875 1.22583 16.2518 1.1615C16.2162 1.09716 16.1645 1.04257 16.1014 1.00274C16.0384 0.962918 15.9661 0.939139 15.8911 0.933592C15.8161 0.928045 15.7409 0.940908 15.6724 0.970999L13.8156 1.83237V12.215C13.8156 12.2883 13.8346 12.3605 13.8709 12.4247C13.9072 12.489 13.9596 12.5433 14.0232 12.5827C14.0869 12.6221 14.1597 12.6452 14.235 12.6499C14.3103 12.6547 14.3855 12.6409 14.4539 12.6098L16.3054 11.7228ZM69.1042 9.98468C69.1042 8.0876 68.9565 6.68274 68.6505 5.97005C68.6111 5.89628 68.5556 5.8318 68.4878 5.78112C68.42 5.73045 68.3416 5.69482 68.2582 5.67674C68.1747 5.65865 68.0882 5.65856 68.0047 5.67646C67.9212 5.69436 67.8427 5.72982 67.7748 5.78035L65.9655 6.84168C66.4086 7.6159 66.6354 8.97461 66.6354 10.7897V13.6763C66.0313 13.9353 65.3752 14.0597 64.7153 14.0403C63.3015 14.0403 62.7318 13.4558 62.7318 11.7484V5.24711C62.7318 3.35004 62.5841 1.94517 62.2782 1.23249C62.2402 1.15736 62.1853 1.09147 62.1177 1.03971C62.05 0.98794 61.9712 0.95161 61.8872 0.933399C61.8031 0.915189 61.7159 0.915563 61.632 0.934496C61.5481 0.953428 61.4697 0.990434 61.4025 1.04278L59.5931 2.06823C60.0204 2.84244 60.2631 4.20116 60.2631 6.02133V12.1381C60.2631 15.0299 61.4658 16.6091 64.4251 16.6091C67.3001 16.6091 69.12 14.8709 69.12 12.1227V9.98468H69.1042ZM65.6595 18.378H63.6919C63.6332 18.3786 63.5753 18.3906 63.5215 18.4132C63.4676 18.4358 63.4189 18.4685 63.3782 18.5095C63.3375 18.5505 63.3055 18.599 63.2842 18.6521C63.2629 18.7052 63.2527 18.7619 63.2541 18.8189V21.08H65.6595C65.7186 21.0794 65.777 21.0672 65.8312 21.0443C65.8854 21.0214 65.9343 20.9882 65.9751 20.9466C66.0159 20.9051 66.0478 20.856 66.0687 20.8023C66.0897 20.7486 66.0995 20.6914 66.0974 20.6339V18.8035C66.0988 18.7465 66.0885 18.6898 66.0672 18.6367C66.0459 18.5836 66.0139 18.5352 65.9732 18.4942C65.9325 18.4531 65.8838 18.4204 65.8299 18.3978C65.7761 18.3752 65.7182 18.3632 65.6595 18.3626" fill="#535353"/>
</svg>
